<?xml version="1.0" encoding="UTF-8"?>
<svg version="1.1" xmlns="http://www.w3.org/2000/svg" width="64" height="64">
<path d="M0 0 C1.66095703 -0.0299707 1.66095703 -0.0299707 3.35546875 -0.06054688 C11.20840042 -0.05593293 19.33320018 0.81195097 25.80419922 5.70800781 C32.56923085 12.96572382 32.6216915 23.00329063 32.5625 32.3125 C32.58248047 33.41980469 32.60246094 34.52710938 32.62304688 35.66796875 C32.61843293 43.52090042 31.75054903 51.64570018 26.85449219 58.11669922 C19.59677618 64.88173085 9.55920937 64.9341915 0.25 64.875 C-0.85730469 64.89498047 -1.96460938 64.91496094 -3.10546875 64.93554688 C-10.95840042 64.93093293 -19.08320018 64.06304903 -25.55419922 59.16699219 C-32.31923085 51.90927618 -32.3716915 41.87170937 -32.3125 32.5625 C-32.33248047 31.45519531 -32.35246094 30.34789062 -32.37304688 29.20703125 C-32.36843293 21.35409958 -31.50054903 13.22929982 -26.60449219 6.75830078 C-19.34677618 -0.00673085 -9.30920937 -0.0591915 0 0 Z M-6.875 18.4375 C-11.1376362 22.58957792 -15.14295129 26.80071221 -18.875 31.4375 C-17.25962556 35.33667968 -14.59575127 38.15043772 -11.75 41.1875 C-11.28207031 41.69410156 -10.81414063 42.20070313 -10.33203125 42.72265625 C-9.18373459 43.96469141 -8.02991328 45.20161494 -6.875 46.4375 C-5.555 45.1175 -4.235 43.7975 -2.875 42.4375 C-5.515 39.4675 -8.155 36.4975 -10.875 33.4375 C-9.26117965 29.40294911 -8.47003354 27.64068936 -5.75 24.625 C-5.21117187 24.02042969 -4.67234375 23.41585938 -4.1171875 22.79296875 C-3.70726562 22.34566406 -3.29734375 21.89835937 -2.875 21.4375 C-4.195 20.4475 -5.515 19.4575 -6.875 18.4375 Z M6.125 18.4375 C4.64 20.4175 4.64 20.4175 3.125 22.4375 C5.765 25.4075 8.405 28.3775 11.125 31.4375 C9.5255386 34.63642281 8.29687081 36.59103735 6 39.1875 C5.19175781 40.10789062 5.19175781 40.10789062 4.3671875 41.046875 C3.95726562 41.50578125 3.54734375 41.9646875 3.125 42.4375 C4.445 43.4275 5.765 44.4175 7.125 45.4375 C8.77992374 43.86367053 10.42366024 42.27807098 12.0625 40.6875 C12.97902344 39.80578125 13.89554688 38.9240625 14.83984375 38.015625 C17.61277784 35.12048058 17.61277784 35.12048058 18.125 31.4375 C16.36587362 28.58793996 16.36587362 28.58793996 13.875 25.8125 C13.06546875 24.85085937 12.2559375 23.88921875 11.421875 22.8984375 C9.18179695 20.30940325 9.18179695 20.30940325 6.125 18.4375 Z " fill="#106532" transform="translate(31.875,-0.4375)"/>
</svg>
